<svg width="496" height="450" viewBox="0 0 496 450" fill="none" xmlns="http://www.w3.org/2000/svg">
<path d="M238.155 12.2128C168.95 -1.36016 67.6554 16.9662 31 53.0574L54.4594 167.632C82.7364 145.784 189.561 111.432 228.939 128.817L238.155 12.2128Z" fill="url(#paint0_linear_22_12)"/>
<rect x="153.183" y="70.7221" width="10.0438" height="10.0438" rx="1.0524" transform="rotate(-3.54051 153.183 70.7221)" stroke="#EEA8A8" stroke-width="2.10481" stroke-linejoin="round"/>
<path d="M156.089 73.6851L159.236 77.058L165.344 67.2364" stroke="#A56884" stroke-width="1.68385" stroke-linecap="round" stroke-linejoin="round"/>
<path d="M173.223 71.4256C182.718 69.8896 205.899 69.331 221.608 71.4256M173.223 77.9188C177.482 77.4999 187.257 77.081 192.493 77.081" stroke="#F4BABA" stroke-width="1.68385" stroke-linecap="round"/>
<rect x="154.44" y="90.7558" width="10.0438" height="10.0438" rx="1.0524" transform="rotate(-3.54051 154.44 90.7558)" stroke="#EEA8A8" stroke-width="2.10481" stroke-linejoin="round"/>
<path d="M174.479 91.4593C183.975 89.9232 207.155 89.3647 222.865 91.4593M174.479 97.9525C178.738 97.5336 187.466 96.4863 192.702 96.4863" stroke="#F4BABA" stroke-width="1.68385" stroke-linecap="round"/>
<path d="M98.2435 56.5092C101.265 50.7963 115.593 45.3738 120.711 55.696C133.901 82.3027 125.906 116.03 117.554 117.607C109.201 119.183 112.84 103.549 106.318 97.627C99.7962 91.7046 89.6349 97.4919 90.7362 108.597C91.8207 119.533 90.5077 131.327 82.4239 122.913C74.3402 114.499 64.1243 93.6598 62.221 83.619C60.1421 72.6516 62.4101 52.0978 82.187 60.1739C91.1499 63.834 93.7175 65.0655 98.2435 56.5092Z" fill="url(#paint1_linear_22_12)"/>
<path d="M83.5704 64.9076C85.8158 64.9429 89.1924 65.1245 92.69 65.5437C95.7114 63.6103 99.1361 61.8477 102.094 61.3027C101.132 61.7571 98.4869 63.1491 94.0563 65.7192C98.5073 66.3306 102.942 67.3428 105.305 68.9416C104.302 68.6129 100.58 67.7368 92.8686 66.4114C90.9129 67.5565 88.6516 68.9057 86.0775 70.4759C87.3237 69.3787 89.3389 67.7769 91.6762 66.2083C89.3248 65.8112 86.6332 65.3768 83.5704 64.9076Z" fill="#D8E4FC"/>
<path d="M144.063 61.3716L139.919 23.629C171.496 16.1222 210.441 20.7793 228.73 22.378L225.769 59.7034C205.876 56.8675 163.01 59.6339 144.063 61.3716Z" fill="#FCEAEA"/>
<path d="M156.257 27.6359C168.824 26.1697 198.148 24.5359 214.905 29.7305M157.304 34.5481C166.73 33.7103 190.189 32.4535 201.081 34.5481M159.398 46.6967C170.36 45.3003 196.263 43.3454 212.182 46.6967M160.446 52.9805C170.989 51.3747 196.305 49.1265 213.23 52.9805" stroke="#F4BABA" stroke-width="1.68385" stroke-linecap="round"/>
<circle cx="111.013" cy="56.7635" r="2.09051" stroke="#A56884" stroke-width="1.68385"/>
<path d="M112.899 56.3445L146.831 50.0608" stroke="#A56884" stroke-width="1.68385"/>
<circle cx="147.669" cy="49.4324" r="2.30405" fill="#A56884"/>
<path d="M267.27 61.3715C291.88 65.5811 303.297 82.527 304.135 89.858C333.25 91.5337 332.831 138.871 323.614 166.52C316.242 188.639 291.079 207.016 279.419 213.439C280.955 213.579 284.446 222.571 286.121 257.425C288.216 300.993 211.973 356.5 192.493 397.973C176.909 431.151 140.617 434.419 124.419 431.905C132.239 422.13 143.186 397.47 124.419 377.027C100.959 351.473 76.9885 342.598 83.5742 286.121C90.4863 226.844 155.209 236.061 159.398 192.493C161.29 172.818 157.932 142.851 176.574 109.128C195.216 75.4053 235.432 55.9256 267.27 61.3715Z" fill="#340731"/>
<path d="M286.75 92.3715C281.304 92.3715 276.347 102.918 274.601 109.338C281.862 120.51 301.039 140.094 298.898 120.649C296.385 97.8175 295.547 92.3715 286.75 92.3715Z" fill="#1A0419"/>
<path d="M199.615 242.135C218.215 237.276 222.306 219.583 222.027 211.344C236.48 208.203 262.452 207.239 250.723 228.52C236.061 255.121 255.959 263.5 260.567 265.385C265.175 267.27 261.615 272.925 244.02 275.02C226.425 277.115 203.811 274.241 193.121 263.5C149.344 219.513 176.365 248.209 199.615 242.135Z" fill="url(#paint2_linear_22_12)"/>
<path d="M253.479 221.389C253.111 223.428 252.227 225.791 250.723 228.52C248.358 232.811 246.892 236.628 246.116 240.019C236.175 235.472 226.548 222.86 221.87 215.205C221.904 214.877 221.934 214.556 221.957 214.242L253.479 221.389Z" fill="#ED7F71"/>
<path d="M309.371 134.054C305.811 118.135 284.725 108.64 275.439 107.453C267.48 128.608 260.458 141.078 241.297 159.189C226.007 173.642 211.028 168.425 199.824 163.797C190.189 159.817 181.392 176.365 193.331 187.257C196.614 190.251 204.083 193.61 208.203 192.074C209.208 197.269 211.554 202.896 212.601 205.061C224.959 227.473 254.074 234.594 280.257 228.52C306.439 222.446 314.44 156.715 309.371 134.054Z" fill="url(#paint3_linear_22_12)"/>
<mask id="mask0_22_12" style="mask-type:alpha" maskUnits="userSpaceOnUse" x="187" y="107" width="124" height="124">
<path d="M309.371 134.054C305.811 118.135 284.725 108.64 275.439 107.453C267.479 128.608 260.458 141.078 241.297 159.189C226.006 173.642 211.028 168.425 199.824 163.797C190.189 159.817 181.392 176.365 193.331 187.257C196.613 190.251 204.083 193.61 208.202 192.074C209.208 197.269 211.554 202.896 212.601 205.061C224.959 227.473 254.074 234.594 280.256 228.52C306.439 222.446 314.44 156.715 309.371 134.054Z" fill="url(#paint4_linear_22_12)"/>
</mask>
<g mask="url(#mask0_22_12)">
<g style="mix-blend-mode:multiply" opacity="0.6" filter="url(#filter0_f_22_12)">
<circle cx="299.736" cy="198.777" r="18.6419" fill="#EF7575"/>
</g>
<g style="mix-blend-mode:multiply" opacity="0.6" filter="url(#filter1_f_22_12)">
<circle cx="232.709" cy="190.398" r="18.6419" fill="#EF7575"/>
</g>
</g>
<path d="M195.216 167.777C199.274 165.757 204.36 170.432 205.921 175.482C205.921 178.008 202.8 175.288 203.19 178.59C203.58 181.892 206.701 177.231 207.286 182.863C207.872 188.496 205.141 188.496 200.068 187.137C194.996 185.777 197.727 185 197.532 182.087C197.337 179.173 193.826 181.31 192.655 179.561C191.485 177.813 190.144 170.302 195.216 167.777Z" fill="#DD6E5F"/>
<path d="M279.147 171.87C278.15 175.746 277.074 182.593 280.561 185.208C285.136 188.637 284.285 192.958 281.583 194.04C279.423 194.906 276.729 195.369 275.652 195.492" stroke="#DD6E5F" stroke-width="2.10481" stroke-linecap="round"/>
<path d="M269.913 172.252C269.596 176.637 267.094 180.028 264.324 179.828C261.555 179.628 259.568 175.911 259.885 171.526C260.203 167.142 262.705 163.75 265.474 163.951C268.243 164.151 270.23 167.868 269.913 172.252Z" fill="black"/>
<path d="M295.886 176.022C295.569 180.407 293.067 183.799 290.297 183.598C287.528 183.398 285.541 179.681 285.858 175.297C286.176 170.912 288.678 167.52 291.447 167.721C294.216 167.921 296.203 171.638 295.886 176.022Z" fill="black"/>
<path d="M270.183 153.166C263.823 152.517 256.933 158.168 254.284 161.074C267.941 154.383 271.289 157.926 272.716 157.723C274.143 157.52 278.133 153.977 270.183 153.166Z" fill="#340731"/>
<path d="M295.369 159.803C299.274 161.435 300.898 164.363 299.674 167.81C299.072 165.636 299.5 164.404 295.371 162.502C291.941 160.923 290.101 161.912 290.101 160.655C290.101 158.996 290.489 157.763 295.369 159.803Z" fill="#340731"/>
<path d="M253.446 196.825C256.575 201.722 268.55 208.315 287.103 202.024C278.79 208.136 259.958 213.684 253.446 196.825Z" fill="#D0422F"/>
<path d="M237.736 270.831C213.23 276.696 194.308 251.491 181.392 238.993C162.331 223.108 127.142 226.006 121.696 262.033C117.339 290.855 139.709 389.873 151.23 431.486L242.973 414.101L249.257 383.101C250.164 384.288 256.797 403.209 270.621 408.655C293.293 417.586 300.365 415.986 306.648 405.094C302.04 400.486 289.975 409.577 286.121 391.479C282.267 373.382 292.126 364.878 299.317 362.364C292.405 332.482 279.957 273.68 270.621 268.317C260.777 262.662 258.36 265.895 237.736 270.831Z" fill="url(#paint5_linear_22_12)"/>
<path d="M249.732 384.023C252.993 372.016 255.848 362.289 258.029 354.86C260.499 346.444 262.104 340.977 262.453 338.486C264.417 324.452 257.844 306.858 251.77 302.459C254.912 306.788 259.101 329.27 256.169 341.419C252.907 354.933 243.055 393.957 235.825 415.455L241.964 414.292C243.684 407.18 245.359 400.555 246.963 394.417L249.257 383.101C249.352 383.225 249.51 383.545 249.732 384.023Z" fill="#B7246B"/>
<path d="M340.79 271.25L290.52 351.263C268.946 384.567 292.183 412.974 306.648 405.094C306.648 405.094 345.983 331.168 358.118 283.821C370.533 284.655 374.204 276.146 377.027 270.202C382.219 273.344 385.072 268.14 387.29 262.871C388.966 258.892 384.807 255.995 383.266 256.6C384.342 255.102 385.361 251.573 381.172 248.85C377.495 246.46 375.516 248.85 375.516 248.85C376.177 247.939 376.885 244.832 374.469 242.566C371.118 239.425 370.39 240.679 367.138 241.519C365.253 239.425 372.165 230.837 384.732 229.999C389.471 229.683 389.624 223.296 382.055 223.296C369.232 223.296 352.266 229.999 345.983 241.519C341.871 249.058 338.067 263.5 340.79 271.25Z" fill="#FFC6B4"/>
<path fill-rule="evenodd" clip-rule="evenodd" d="M370.872 240.548C372.377 240.982 374.048 242.065 374.513 244.858C375.142 248.628 369.905 256.169 365.716 256.378C362.736 256.527 362.571 255.583 362.277 253.9C362.24 253.69 362.202 253.469 362.155 253.236C362.155 253.236 361.132 253.236 361.527 254.912C362.257 258.017 364.9 257.936 367.231 257.865C367.573 257.855 367.908 257.844 368.229 257.844C368.349 257.844 368.448 257.737 368.557 257.619C368.608 257.564 368.661 257.508 368.718 257.458C368.227 258.12 368.092 260.983 370.952 263.081C372.349 264.105 373.047 264.128 374.513 263.974C374.513 267.413 375.592 269.282 377.005 270.249C377.012 270.233 377.019 270.218 377.027 270.202C382.219 273.344 385.072 268.14 387.29 262.871C388.966 258.892 384.807 255.995 383.266 256.6C384.342 255.102 385.361 251.573 381.172 248.85C377.495 246.46 375.516 248.85 375.516 248.85C376.177 247.939 376.885 244.832 374.469 242.566C372.852 241.05 371.846 240.558 370.872 240.548ZM371.581 261.824C368.732 260.651 369.247 257.705 369.861 256.378C371.868 254.353 374.724 250.952 376.304 248.628C380.072 248 384.358 251.979 383.52 254.912C382.682 257.844 375.142 263.29 371.581 261.824ZM377.399 262.873C377.123 262.996 376.877 263.106 376.608 263.29C375.979 263.938 374.804 265.616 376.608 268.108C380.557 273.561 383.324 268.765 384.909 266.017C385.09 265.704 385.255 265.417 385.405 265.175C386.871 262.812 387.69 257.844 383.301 256.797C383.006 257.192 382.862 257.508 382.713 257.837C382.394 258.537 382.049 259.294 380.169 260.986C378.737 262.275 377.996 262.606 377.399 262.873Z" fill="#ED7F70"/>
<path d="M349.588 248.209C353.428 246.464 361.904 243.434 365.088 245.277C369.067 247.581 364.459 255.54 349.588 262.034C354.894 258.75 364.669 251.351 364.25 248.209C363.709 244.151 358.158 245.784 353.356 247.196C351.996 247.596 350.697 247.979 349.588 248.209Z" fill="#ED7F70"/>
<path d="M355.033 258.892L361.736 253.865C361.736 254.772 362.155 256.671 363.831 257.006C365.506 257.342 368.02 256.727 369.067 256.378C368.858 258.124 369.067 261.782 371.581 262.452C374.094 263.123 375.84 262.313 376.398 261.824C375.7 263.011 374.513 265.846 375.351 267.689C374.653 270.482 371.706 276.067 365.506 276.067C357.756 276.067 350.635 273.973 355.033 258.892Z" fill="url(#paint6_linear_22_12)"/>
<path d="M172.385 293.034L189.77 409.283C196.403 411.378 208.37 414.31 203.176 409.283C197.981 404.256 180.484 329.689 172.385 293.034Z" fill="#B7246B"/>
<path d="M242.135 411.587C246.492 411.755 251.77 410.68 253.865 410.121C266.851 398.182 278.162 400.067 284.027 407.189L284.242 407.45C290.068 414.523 297.128 423.095 289.473 422.06C281.723 421.013 270.412 426.459 261.405 427.716C252.398 428.973 244.439 435.675 203.385 446.148C162.331 456.621 153.743 443.844 151.02 430.439C148.297 417.033 153.743 406.979 175.527 404.466C197.311 401.952 236.689 411.378 242.135 411.587Z" fill="#FFC6B4"/>
<path d="M496 92.3715C468.518 154.874 393.225 175.387 359.013 177.831V355.033C443.467 350.509 485.527 310 496 290.311V92.3715Z" fill="url(#paint7_linear_22_12)"/>
<path d="M440.893 222.233C436.446 238.359 423.131 248.024 417.029 250.841C417.003 281.428 429.135 297.792 442.5 298.832C463.308 293.307 467.188 251.52 466.315 233.034C455.411 239.245 444.824 228.422 440.893 222.233Z" fill="#FFC383"/>
<path d="M441.595 230.619C437.943 243.86 427.009 251.797 421.998 254.11C421.977 279.228 431.939 292.666 442.914 293.519C460.002 288.982 463.188 254.668 462.471 239.488C453.517 244.588 444.823 235.7 441.595 230.619Z" fill="url(#paint8_linear_22_12)"/>
<path d="M442.956 253.542L448.402 251.448V276.373L442.956 279.096V253.542Z" fill="#F55B5B"/>
<path d="M455.293 257.793L455.307 263.236L435.189 270.816L435.055 265.197L455.293 257.793Z" fill="#F55B5B"/>
<path d="M479.662 150.811C474.565 161.423 449.206 185.832 388.547 198.567M479.662 177.831C474.006 183.905 455.825 198.19 428.344 206.736" stroke="#F4BABA" stroke-width="4.20962" stroke-linecap="round"/>
<path d="M308.743 21.3648C310.251 35.6081 311.187 63.4662 311.466 75.6148C341.293 78.4634 416.196 69.8198 449.918 65.1418L446.986 0C410.791 9.04864 339.743 18.0135 308.743 21.3648Z" fill="url(#paint9_linear_22_12)"/>
<path d="M318.229 28.9633C319.562 27.3634 322.149 27.0767 323.629 29.4658C324.482 27.2848 327.249 26.6631 328.849 27.9958C330.449 29.3285 330.666 31.7059 329.333 33.3058L324.507 39.0995L318.713 34.2733C317.113 32.9406 316.896 30.5632 318.229 28.9633Z" fill="#F55B5B"/>
<path d="M354.341 24.9152C355.673 23.3153 358.261 23.0286 359.74 25.4177C360.593 23.2367 363.361 22.615 364.961 23.9477C366.56 25.2804 366.777 27.6577 365.444 29.2576L360.618 35.0514L354.824 30.2252C353.225 28.8925 353.008 26.5151 354.341 24.9152Z" fill="#F55B5B"/>
<path d="M336.746 27.0098C338.079 25.4099 340.666 25.1231 342.146 27.5122C342.999 25.3313 345.766 24.7095 347.366 26.0422C348.966 27.375 349.182 29.7523 347.85 31.3522L343.024 37.146L337.23 32.3198C335.63 30.987 335.413 28.6097 336.746 27.0098Z" fill="#F55B5B"/>
<path d="M318.169 52.3648C322.707 52.0856 332.663 51.4013 336.182 50.8986L338.486 42.9392L342.885 63.0473L344.56 45.6621L346.236 50.8986C352.38 50.3401 365.548 49.0973 369.067 48.5946L370.743 40.8446L374.304 58.2297L375.56 45.6621L377.446 47.7567L384.986 46.5" stroke="#E4A4A4" stroke-width="1.26288" stroke-linecap="round" stroke-linejoin="round"/>
<path d="M413.672 27.9264L413.003 21.2259C411.852 22.3076 411.06 22.87 410.628 22.9131C410.422 22.9337 410.23 22.871 410.051 22.7252C409.878 22.574 409.78 22.3904 409.758 22.1744C409.733 21.9241 409.794 21.7321 409.939 21.5987C410.084 21.4652 410.346 21.2853 410.725 21.0591C411.291 20.72 411.736 20.3782 412.058 20.0337C412.386 19.6887 412.668 19.311 412.905 18.9007C413.141 18.4904 413.297 18.2369 413.372 18.1402C413.446 18.0435 413.599 17.9836 413.83 17.9606C414.09 17.9346 414.308 18.0144 414.486 18.2C414.663 18.3856 414.769 18.6551 414.804 19.0085L415.646 27.4393C415.744 28.426 415.457 28.9529 414.785 29.02C414.485 29.0499 414.235 28.9733 414.033 28.7901C413.831 28.607 413.711 28.3191 413.672 27.9264ZM418.689 20.3088C418.64 19.818 418.727 19.3433 418.949 18.8849C419.175 18.4211 419.533 18.0333 420.023 17.7217C420.517 17.4096 421.11 17.219 421.802 17.15C422.386 17.0917 422.907 17.1166 423.364 17.2246C423.821 17.3327 424.21 17.507 424.532 17.7476C424.853 17.9833 425.101 18.2634 425.277 18.5879C425.453 18.9075 425.56 19.2562 425.597 19.6342C425.645 20.1153 425.563 20.5573 425.351 20.9602C425.143 21.3627 424.806 21.7087 424.339 21.9982C424.772 22.1186 425.139 22.2976 425.441 22.5352C425.742 22.7679 425.978 23.0517 426.15 23.3865C426.327 23.7159 426.437 24.0917 426.479 24.5138C426.54 25.1323 426.447 25.7093 426.198 26.2448C425.948 26.7754 425.548 27.212 424.997 27.5545C424.447 27.897 423.778 28.1075 422.993 28.1858C422.178 28.2672 421.467 28.1944 420.859 27.9675C420.252 27.7406 419.776 27.394 419.432 26.9276C419.087 26.4563 418.884 25.9114 418.822 25.2929C418.691 23.9724 419.224 23.0045 420.422 22.3892C419.368 22.0184 418.791 21.325 418.689 20.3088ZM424.455 24.6563C424.417 24.2734 424.305 23.9475 424.12 23.6784C423.934 23.4094 423.692 23.213 423.392 23.0893C423.092 22.9655 422.765 22.9213 422.412 22.9565C421.911 23.0065 421.508 23.2153 421.203 23.5829C420.897 23.9505 420.774 24.4337 420.834 25.0326C420.872 25.4155 420.985 25.7464 421.171 26.0252C421.362 26.2986 421.603 26.5026 421.894 26.6372C422.185 26.7668 422.499 26.8148 422.838 26.781C423.182 26.7467 423.483 26.6348 423.741 26.4454C424 26.2559 424.193 26.0061 424.321 25.6959C424.449 25.3857 424.493 25.0392 424.455 24.6563ZM421.987 18.5519C421.525 18.598 421.167 18.78 420.911 19.098C420.66 19.4107 420.557 19.7928 420.602 20.2444C420.643 20.6617 420.823 20.9957 421.14 21.2466C421.457 21.4926 421.844 21.5928 422.301 21.5472C422.531 21.5242 422.736 21.4666 422.916 21.3743C423.1 21.2816 423.252 21.1648 423.371 21.0239C423.496 20.8777 423.586 20.7125 423.642 20.5285C423.697 20.3395 423.714 20.137 423.693 19.921C423.664 19.6314 423.571 19.3779 423.416 19.1604C423.265 18.9424 423.066 18.7789 422.817 18.6699C422.568 18.5609 422.291 18.5215 421.987 18.5519ZM435.171 21.4525C435.252 22.2575 435.272 22.9545 435.231 23.5436C435.191 24.1326 435.062 24.676 434.844 25.1737C434.568 25.7862 434.18 26.276 433.681 26.6431C433.183 27.0102 432.609 27.2261 431.961 27.2907C431.215 27.3652 430.524 27.221 429.888 26.8581C429.257 26.4948 428.754 25.955 428.38 25.2387C428.188 24.8465 428.03 24.4086 427.907 23.9251C427.789 23.4361 427.701 22.9045 427.644 22.3302C427.57 21.589 427.543 20.9175 427.562 20.3157C427.581 19.7139 427.653 19.1911 427.777 18.7474C427.996 18.0116 428.362 17.4322 428.875 17.0092C429.393 16.5808 430.034 16.3283 430.8 16.2519C431.306 16.2014 431.773 16.2391 432.202 16.3648C432.63 16.4857 433.015 16.6902 433.356 16.9784C433.702 17.2612 434.006 17.625 434.268 18.0698C434.722 18.8425 435.023 19.97 435.171 21.4525ZM433.139 21.5066C433.049 20.6083 432.922 19.8798 432.757 19.3212C432.592 18.7576 432.367 18.3438 432.083 18.0796C431.798 17.8106 431.43 17.6986 430.979 17.7437C430.331 17.8084 429.912 18.1799 429.722 18.8582C429.536 19.5361 429.512 20.5548 429.647 21.9146C429.74 22.8374 429.869 23.588 430.036 24.1662C430.203 24.7445 430.429 25.1731 430.714 25.452C431 25.7259 431.361 25.8411 431.797 25.7975C432.249 25.7524 432.587 25.56 432.811 25.2204C433.035 24.8808 433.169 24.4137 433.214 23.8193C433.258 23.2249 433.234 22.454 433.139 21.5066Z" fill="#A56884"/>
<path d="M418.937 41.6535C418.888 41.1626 418.975 40.6879 419.197 40.2295C419.423 39.7657 419.781 39.378 420.271 39.0663C420.765 38.7543 421.358 38.5637 422.05 38.4946C422.634 38.4363 423.155 38.4612 423.612 38.5692C424.069 38.6773 424.458 38.8516 424.78 39.0922C425.101 39.3279 425.349 39.608 425.525 39.9325C425.701 40.2521 425.808 40.6009 425.846 40.9788C425.894 41.4599 425.811 41.9019 425.599 42.3049C425.391 42.7073 425.054 43.0533 424.587 43.3429C425.02 43.4632 425.388 43.6422 425.689 43.8798C425.99 44.1126 426.226 44.3963 426.398 44.7311C426.575 45.0605 426.685 45.4363 426.727 45.8585C426.788 46.477 426.695 47.054 426.446 47.5894C426.196 48.12 425.796 48.5566 425.245 48.8991C424.695 49.2416 424.026 49.4521 423.241 49.5305C422.426 49.6118 421.715 49.539 421.107 49.3121C420.5 49.0852 420.024 48.7386 419.68 48.2722C419.335 47.8009 419.132 47.256 419.07 46.6375C418.939 45.317 419.472 44.3491 420.67 43.7338C419.616 43.363 419.039 42.6696 418.937 41.6535ZM424.703 46.0009C424.665 45.618 424.553 45.2921 424.368 45.023C424.182 44.754 423.94 44.5576 423.64 44.4339C423.34 44.3101 423.013 44.2659 422.66 44.3012C422.159 44.3511 421.756 44.5599 421.451 44.9275C421.145 45.2951 421.022 45.7783 421.082 46.3772C421.12 46.7601 421.233 47.091 421.419 47.3698C421.61 47.6433 421.851 47.8473 422.142 47.9818C422.433 48.1115 422.747 48.1594 423.086 48.1256C423.43 48.0913 423.731 47.9794 423.989 47.79C424.248 47.6006 424.441 47.3507 424.569 47.0405C424.697 46.7303 424.742 46.3838 424.703 46.0009ZM422.235 39.8965C421.773 39.9426 421.415 40.1246 421.159 40.4427C420.908 40.7553 420.805 41.1374 420.85 41.589C420.891 42.0063 421.071 42.3403 421.388 42.5912C421.705 42.8372 422.092 42.9374 422.549 42.8919C422.779 42.8688 422.984 42.8112 423.164 42.7189C423.348 42.6262 423.5 42.5094 423.619 42.3685C423.744 42.2223 423.834 42.0571 423.89 41.8731C423.945 41.6841 423.962 41.4816 423.941 41.2656C423.912 40.976 423.82 40.7225 423.664 40.505C423.513 40.287 423.314 40.1235 423.065 40.0145C422.816 39.9055 422.539 39.8662 422.235 39.8965ZM433.785 39.2419L430.288 39.591L430.106 42.0186C430.766 41.5759 431.391 41.3252 431.98 41.2664C432.451 41.2194 432.899 41.2639 433.324 41.3999C433.754 41.5355 434.139 41.7449 434.48 42.0282C434.82 42.3066 435.1 42.6505 435.319 43.0599C435.538 43.4694 435.673 43.9195 435.722 44.4104C435.793 45.1221 435.698 45.786 435.437 46.402C435.176 47.018 434.761 47.5279 434.192 47.9318C433.627 48.3352 432.952 48.5761 432.167 48.6545C431.288 48.7422 430.558 48.6515 429.975 48.3824C429.398 48.1128 428.973 47.7809 428.701 47.3866C428.433 46.987 428.284 46.6301 428.252 46.316C428.233 46.1245 428.293 45.9351 428.433 45.7476C428.578 45.5596 428.771 45.4536 429.011 45.4296C429.424 45.3885 429.754 45.5959 430.003 46.052C430.243 46.4693 430.542 46.784 430.901 46.9961C431.258 47.2033 431.643 47.2863 432.056 47.2452C432.434 47.2075 432.755 47.0762 433.02 46.8514C433.285 46.6267 433.477 46.3349 433.595 45.9761C433.718 45.6168 433.757 45.2187 433.714 44.7818C433.667 44.3106 433.543 43.9164 433.343 43.5993C433.143 43.2821 432.894 43.0565 432.598 42.9225C432.302 42.7835 431.982 42.7312 431.638 42.7655C431.216 42.8076 430.919 42.8893 430.748 43.0105C430.577 43.1317 430.332 43.3395 430.015 43.634C429.701 43.923 429.434 44.0786 429.213 44.1006C428.973 44.1246 428.751 44.0601 428.547 43.9069C428.343 43.7488 428.23 43.5593 428.208 43.3384C428.205 43.3138 428.216 43.1442 428.239 42.8296L428.505 39.2409C428.532 38.8119 428.629 38.4924 428.796 38.2823C428.964 38.0723 429.259 37.9462 429.681 37.904L433.568 37.516C434.334 37.4396 434.746 37.6934 434.805 38.2776C434.83 38.5328 434.757 38.7483 434.586 38.924C434.416 39.0997 434.149 39.2057 433.785 39.2419Z" fill="#A56884"/>
<path d="M145.365 294.887C81.8983 296.226 22.0106 274.939 0 264.128V400.346C29.0729 442.195 109.024 439.963 145.365 433.616V294.887Z" fill="url(#paint10_linear_22_12)"/>
<path d="M24.8326 290.468C23.5566 299.183 21.3368 315.635 29.6407 323.991C38.6681 333.074 57.139 329.28 53.8887 352.631C50.9699 373.6 31.4274 362.797 21.5975 374.155C15.6927 380.978 15.5693 389.456 15.4053 400.716M59.8107 299.772C59.1028 307.962 53.9397 329.119 36.8667 328.646C15.5255 328.056 7.75122 360.819 31.6787 368.441C56.8171 376.449 47.0005 406.103 47.0005 406.103" stroke="#E69999" stroke-width="2.10481" stroke-linecap="round"/>
<path d="M24.6594 296.914L58.3213 305.381" stroke="#CC6363" stroke-width="0.841923"/>
<circle cx="24.1971" cy="296.438" r="2.58054" transform="rotate(0.834371 24.1971 296.438)" fill="#CC6363"/>
<circle cx="58.7905" cy="305.388" r="2.58054" transform="rotate(0.834371 58.7905 305.388)" fill="#CC6363"/>
<path d="M19.8257 338.841L53.7358 346.373" stroke="#CC6363" stroke-width="0.841923"/>
<circle cx="19.3599" cy="338.599" r="2.58054" transform="rotate(0.834371 19.3599 338.599)" fill="#CC6363"/>
<circle cx="54.443" cy="346.149" r="2.58054" transform="rotate(0.834371 54.443 346.149)" fill="#CC6363"/>
<path d="M17.3638 346.782L52.2121 354.328" stroke="#CC6363" stroke-width="0.841923"/>
<circle cx="16.898" cy="346.54" r="2.58054" transform="rotate(0.834371 16.898 346.54)" fill="#CC6363"/>
<circle cx="53.3817" cy="354.58" r="2.58054" transform="rotate(0.834371 53.3817 354.58)" fill="#CC6363"/>
<path d="M18.6483 355.247L50.6853 362.517" stroke="#CC6363" stroke-width="0.841923"/>
<circle cx="18.1825" cy="355.005" r="2.58054" transform="rotate(0.834371 18.1825 355.005)" fill="#CC6363"/>
<circle cx="50.4438" cy="362.983" r="2.58054" transform="rotate(0.834371 50.4438 362.983)" fill="#CC6363"/>
<path d="M21.6453 374.998L44.1195 378.376" stroke="#CC6363" stroke-width="0.841923"/>
<circle cx="21.1795" cy="374.757" r="2.58054" transform="rotate(0.834371 21.1795 374.757)" fill="#CC6363"/>
<circle cx="45.0577" cy="378.389" r="2.58054" transform="rotate(0.834371 45.0577 378.389)" fill="#CC6363"/>
<path d="M16.2388 391.812L47.8407 396.73" stroke="#CC6363" stroke-width="0.841923"/>
<circle cx="15.773" cy="391.571" r="2.58054" transform="rotate(0.834371 15.773 391.571)" fill="#CC6363"/>
<circle cx="48.5445" cy="396.74" r="2.58054" transform="rotate(0.834371 48.5445 396.74)" fill="#CC6363"/>
<path d="M17.7897 381.981L47.0494 386.63" stroke="#CC6363" stroke-width="0.841923"/>
<circle cx="17.3239" cy="381.739" r="2.58054" transform="rotate(0.834371 17.3239 381.739)" fill="#CC6363"/>
<circle cx="47.7497" cy="386.875" r="2.58054" transform="rotate(0.834371 47.7497 386.875)" fill="#CC6363"/>
<path d="M25.0785 332.582L51.044 337.887" stroke="#CC6363" stroke-width="0.841923"/>
<circle cx="24.1471" cy="332.1" r="2.58054" transform="rotate(0.834371 24.1471 332.1)" fill="#CC6363"/>
<circle cx="52.2202" cy="337.67" r="2.58054" transform="rotate(0.834371 52.2202 337.67)" fill="#CC6363"/>
<path d="M24.3224 303.948L57.736 313.35" stroke="#CC6363" stroke-width="0.841923"/>
<circle cx="23.6118" cy="304.407" r="2.58054" transform="rotate(0.834371 23.6118 304.407)" fill="#CC6363"/>
<circle cx="56.3217" cy="313.799" r="2.58054" transform="rotate(0.834371 56.3217 313.799)" fill="#CC6363"/>
<path d="M24.6617 312.868L53.1699 320.791" stroke="#CC6363" stroke-width="0.841923"/>
<circle cx="24.4272" cy="312.865" r="2.58054" transform="rotate(0.834371 24.4272 312.865)" fill="#CC6363"/>
<circle cx="53.4044" cy="320.795" r="2.58054" transform="rotate(0.834371 53.4044 320.795)" fill="#CC6363"/>
<path d="M27.3604 320.885L46.9925 326.098" stroke="#CC6363" stroke-width="0.841923"/>
<circle cx="27.1258" cy="320.881" r="2.58054" transform="rotate(0.834371 27.1258 320.881)" fill="#CC6363"/>
<circle cx="47.2306" cy="325.866" r="2.58054" transform="rotate(0.834371 47.2306 325.866)" fill="#CC6363"/>
<path d="M22.5232 363.046L41.2409 366.603" stroke="#CC6363" stroke-width="0.841923"/>
<circle cx="22.2887" cy="363.042" r="2.58054" transform="rotate(0.834371 22.2887 363.042)" fill="#CC6363"/>
<circle cx="41.9378" cy="367.082" r="2.58054" transform="rotate(0.834371 41.9378 367.082)" fill="#CC6363"/>
<path d="M129.236 308.324C119.182 308.994 87.2049 303.297 72.4729 300.365V339.324C82.5269 347.032 114.504 348.401 129.236 348.121V308.324Z" fill="#FAEEED"/>
<path d="M72.8918 356.29C84.3423 358.804 111.432 363.537 128.189 362.364M72.8918 368.439C81.759 370.394 101.253 374.178 108.29 373.675M72.8918 406.77C79.7342 409.214 98.1526 413.975 117.088 413.473" stroke="#F4BABA" stroke-width="4.20962" stroke-linecap="round"/>
<defs>
<filter id="filter0_f_22_12" x="255.837" y="154.877" width="87.7991" height="87.7991" filterUnits="userSpaceOnUse" color-interpolation-filters="sRGB">
<feFlood flood-opacity="0" result="BackgroundImageFix"/>
<feBlend mode="normal" in="SourceGraphic" in2="BackgroundImageFix" result="shape"/>
<feGaussianBlur stdDeviation="12.6288" result="effect1_foregroundBlur_22_12"/>
</filter>
<filter id="filter1_f_22_12" x="188.81" y="146.499" width="87.7991" height="87.7991" filterUnits="userSpaceOnUse" color-interpolation-filters="sRGB">
<feFlood flood-opacity="0" result="BackgroundImageFix"/>
<feBlend mode="normal" in="SourceGraphic" in2="BackgroundImageFix" result="shape"/>
<feGaussianBlur stdDeviation="12.6288" result="effect1_foregroundBlur_22_12"/>
</filter>
<linearGradient id="paint0_linear_22_12" x1="134.473" y1="17.3852" x2="154.162" y2="175.317" gradientUnits="userSpaceOnUse">
<stop offset="0.0264357" stop-color="#FFDADA"/>
<stop offset="1" stop-color="#F9F2F1"/>
</linearGradient>
<linearGradient id="paint1_linear_22_12" x1="93.5287" y1="50.5042" x2="95.0944" y2="110.594" gradientUnits="userSpaceOnUse">
<stop stop-color="white"/>
<stop offset="0.922183" stop-color="#F9EEED"/>
</linearGradient>
<linearGradient id="paint2_linear_22_12" x1="221.817" y1="220.561" x2="221.817" y2="275.648" gradientUnits="userSpaceOnUse">
<stop stop-color="#FFC6B4"/>
<stop offset="1" stop-color="#FFA18C"/>
</linearGradient>
<linearGradient id="paint3_linear_22_12" x1="267.689" y1="204.013" x2="258.263" y2="101.378" gradientUnits="userSpaceOnUse">
<stop stop-color="#FFC6B4"/>
<stop offset="1" stop-color="#FF9C86"/>
</linearGradient>
<linearGradient id="paint4_linear_22_12" x1="267.689" y1="204.013" x2="258.263" y2="101.378" gradientUnits="userSpaceOnUse">
<stop stop-color="#FFC6B4"/>
<stop offset="1" stop-color="#FF9C86"/>
</linearGradient>
<linearGradient id="paint5_linear_22_12" x1="193.959" y1="229.986" x2="210.925" y2="383.729" gradientUnits="userSpaceOnUse">
<stop stop-color="#AB1E62"/>
<stop offset="1" stop-color="#DD5FAB"/>
</linearGradient>
<linearGradient id="paint6_linear_22_12" x1="366.554" y1="256.378" x2="364.25" y2="273.344" gradientUnits="userSpaceOnUse">
<stop stop-color="#ED7F70"/>
<stop offset="1" stop-color="#FFC6B4"/>
</linearGradient>
<linearGradient id="paint7_linear_22_12" x1="513.804" y1="150.182" x2="393.783" y2="387.29" gradientUnits="userSpaceOnUse">
<stop stop-color="#FFD8D8"/>
<stop offset="1" stop-color="#FFECEB" stop-opacity="0.4"/>
</linearGradient>
<linearGradient id="paint8_linear_22_12" x1="443.858" y1="230.795" x2="439.004" y2="293.215" gradientUnits="userSpaceOnUse">
<stop stop-color="white"/>
<stop offset="1" stop-color="#FFD8D8"/>
</linearGradient>
<linearGradient id="paint9_linear_22_12" x1="376.398" y1="15.2905" x2="379.54" y2="102.007" gradientUnits="userSpaceOnUse">
<stop stop-color="#FFD8D8"/>
<stop offset="1" stop-color="#F9F2F1"/>
</linearGradient>
<linearGradient id="paint10_linear_22_12" x1="66.0317" y1="293.213" x2="91.1109" y2="454.336" gradientUnits="userSpaceOnUse">
<stop stop-color="#FFD8D8"/>
<stop offset="1" stop-color="#FAF0F0" stop-opacity="0.8"/>
</linearGradient>
</defs>
</svg>
