<svg width="260" height="260" viewBox="0 0 260 260" fill="none" xmlns="http://www.w3.org/2000/svg">
<circle cx="130" cy="130" r="130" fill="url(#paint0_linear_18_62)"/>
<mask id="mask0_18_62" style="mask-type:alpha" maskUnits="userSpaceOnUse" x="0" y="0" width="260" height="260">
<circle cx="130" cy="130" r="130" fill="#E7E7E7"/>
</mask>
<g mask="url(#mask0_18_62)">
<path opacity="0.4" d="M-8.09009 222.06L86.2018 1.67383L201.137 8.92705L212.296 328.348L-8.09009 222.06Z" fill="url(#paint1_linear_18_62)"/>
<path d="M114.64 171.553C118.755 169.028 117.041 162.415 115.607 159.317C122.224 153.497 134.578 144.474 131.064 154.942C127.55 165.41 133.785 170.082 137.342 171.109C125.587 185.291 104.613 177.704 114.64 171.553Z" fill="#F9A370"/>
<path d="M130.259 158.087C129.688 161.435 130.218 164.056 131.262 166.05C124.961 166.197 119.545 163.829 116.569 161.926C116.446 161.498 116.312 161.087 116.173 160.701L128.326 157.339C128.939 157.563 129.592 157.814 130.259 158.087Z" fill="#DF824C"/>
<path d="M79.2425 116.675C78.7345 111.399 83.0809 107.057 86.4933 107.569C104.574 102.278 142.803 97.4386 147.926 99.4116C154.329 101.878 155.223 105.346 155.606 109.322C156.034 113.765 155.67 119.685 154.176 120.67C154.176 120.67 157.974 122.266 158.375 126.432C158.779 130.634 155.46 133.999 153.767 133.882C153.879 139.7 151.675 144.172 146.847 143.516C143.965 157.246 111.517 149.16 105.334 154.8C100.388 159.312 97.8491 154.68 96.1275 152.324C91.8182 154.14 90.7658 150.971 90.4771 148.944C90.4771 148.944 87.2447 149.086 86.0445 146.568C84.6396 143.621 87.5338 141.66 87.5338 141.66C83.5927 141.479 78.9686 137.115 78.3846 131.051C77.9301 126.33 80.0817 122.479 81.7211 122.041C81.7211 122.041 79.5901 120.285 79.2425 116.675Z" fill="#42083E"/>
<path d="M87.0843 134.666C90.0439 130.869 94.0006 134.549 95.609 136.864L101.935 148.603C100.236 148.949 96.0305 149.336 92.7952 148.111C88.7509 146.579 83.3848 139.413 87.0843 134.666Z" fill="#DF824C"/>
<path d="M150.45 127.959C146.832 124.912 143.637 129.145 142.492 131.643L138.483 143.965C140.216 143.975 144.418 143.553 147.365 141.784C151.049 139.572 154.974 131.767 150.45 127.959Z" fill="#DF824C"/>
<path d="M133.778 158.367C146.806 150.162 145.671 131.298 145.484 117.708C136.102 64.7756 91.012 95.0168 91.6413 108.565C92.0134 116.577 90.9113 124.779 96.2936 142.952C101.67 161.103 119.162 167.571 133.778 158.367Z" fill="url(#paint2_linear_18_62)"/>
<path d="M124.875 129.225C125.126 131.832 126.822 133.802 128.662 133.625C130.502 133.448 131.791 131.19 131.54 128.583C131.289 125.976 129.593 124.006 127.753 124.183C125.913 124.361 124.624 126.618 124.875 129.225Z" fill="black"/>
<path d="M106.786 131.885C107.215 134.477 109.046 136.333 110.876 136.03C112.706 135.727 113.841 133.38 113.412 130.788C112.983 128.196 111.152 126.34 109.322 126.643C107.492 126.946 106.357 129.293 106.786 131.885Z" fill="black"/>
<path d="M102.223 128.589C102.243 125.878 103.857 120.528 110.163 120.818M124.979 119.678C127.741 118.291 133.364 117.664 134.185 123.863" stroke="black" stroke-width="1.67382" stroke-linecap="round"/>
<path d="M118.753 134.4C116.413 135.651 116.362 139.749 116.349 141.128C118.124 132.394 122.049 134.674 124.124 140.379C123.73 136.283 121.448 132.96 118.753 134.4Z" fill="#D5733A"/>
<path d="M131.019 143.094C125.048 141.466 115.014 143.247 110.737 145.396C110.691 148.241 115.056 156.135 120.687 155.593C128.74 154.817 130.917 147.178 131.019 143.094Z" fill="#D25959"/>
<path d="M129.238 149.887C121.608 147.621 116.636 149.973 114.138 152.426C115.873 154.371 118.152 155.837 120.687 155.593C125.081 155.17 127.725 152.704 129.238 149.887Z" fill="#F27A7A"/>
<path d="M111.11 147.307C110.859 146.562 110.729 145.9 110.737 145.396C115.014 143.247 125.048 141.466 131.019 143.094C131.002 143.779 130.926 144.564 130.775 145.4C124.69 143.761 115.685 145.813 111.11 147.307Z" fill="white"/>
<path d="M106.978 106.895C104.782 116.772 94.4746 119.03 89.595 118.924C86.189 118.562 87.0102 116.393 87.8466 115.353C85.6407 113.84 80.5791 109.253 80.8696 104.467C81.1947 99.1106 84.8683 96.5148 88.8361 96.9735C88.5068 93.5533 89.1918 89.2104 96.268 83.9265C103.344 78.6426 110.682 81.1741 113.676 83.0912C114.197 81.6986 116.577 79.018 122.301 77.7765C128.024 76.535 132.338 81.1528 134.042 83.29C135.422 80.1566 138.473 79.8833 140.831 81.037C143.19 82.1906 144.59 85.3641 143.948 86.4806C147.268 87.887 150.985 93.6252 148.592 101.45C146.199 109.274 139.708 106.428 136.761 104.027C136.916 105.642 135.646 109.37 129.32 111.36C122.994 113.35 116.893 106.781 115.654 103.64C115.913 104.382 116.162 108.916 113.328 109.749C109.731 110.807 108.376 108.774 106.978 106.895Z" fill="#42083E"/>
<path d="M175.095 77.1307C175.988 79.8088 174.723 84.3839 173.979 86.3367L187.091 87.4525C187.277 84.8488 187.928 79.2508 189.044 77.6886C190.16 76.1264 190.811 74.4339 190.997 73.783C191.462 74.062 192.726 74.4525 194.065 73.783C195.739 72.9461 197.134 62.9032 195.739 60.9504C194.623 59.3882 193.042 59.9275 192.391 60.3925C192.391 59.701 192.001 58.1192 190.439 57.3238C188.876 56.5284 187.184 57.6552 186.533 58.318C186.626 57.8006 186.143 56.5985 183.464 55.9289C180.786 55.2594 179.373 57.2427 179.001 58.318C176.359 57.2018 173.261 56.8076 172.306 59.8345C170.632 65.1349 173.979 73.783 175.095 77.1307Z" fill="#F9A370"/>
<path d="M171.132 81.6128L165.15 139.397L182.977 140.38L190.909 82.7038C188.013 86.5673 176.518 83.5863 171.132 81.6128Z" fill="url(#paint3_linear_18_62)"/>
<path d="M176.844 57.6312C180.276 58.7514 185.479 60.6498 185.236 63.3262C185.098 64.8463 180.71 65.0586 177.697 65.2044C177.186 65.2291 176.714 65.252 176.309 65.2789C180.494 66.1159 185.794 65.5579 185.794 63.0472C185.794 61.4023 184.11 59.084 179.211 57.8386C179.121 58.0093 179.052 58.172 179.001 58.3181C178.298 58.0211 177.563 57.7751 176.844 57.6312Z" fill="#DF824C"/>
<path d="M177.403 66.5261C177.308 70.4117 177.143 77.1892 182.446 78.1115C187.739 79.032 189.235 74.5746 190.067 72.0978C190.243 71.5719 190.39 71.1352 190.536 70.8583L187.747 71.6952L186.631 70.5794L185.515 68.9055L184.12 70.3004L181.609 69.7424L179.657 66.1158V65.2789H177.425C177.425 65.6441 177.415 66.0647 177.403 66.5261Z" fill="url(#paint4_linear_18_62)"/>
<path d="M185.007 56.472C185.652 57.4391 186.21 58.8955 186.073 60.8154C186.05 61.139 186.028 61.4773 186.006 61.8248C185.758 65.6708 185.438 70.6378 182.446 69.1845C179.657 67.8293 179.936 65.2789 179.936 65.2789H179.378C179.406 65.4515 179.433 65.6442 179.461 65.8507C179.617 66.9789 179.829 68.5202 180.773 69.4634C181.609 70.3004 184.12 71.1373 185.794 69.7424C186.352 71.0443 187.747 73.5364 189.979 71.9742C190.212 72.7903 190.572 73.431 191.123 73.8515C191.665 74.1177 192.833 74.3989 194.065 73.783C195.739 72.9461 197.134 62.9032 195.739 60.9504C195.318 60.3612 194.831 60.0709 194.353 59.9628C194.83 60.4816 195.312 61.2276 195.558 62.2102C196.116 64.442 195 70.3004 194.163 71.9742C193.634 73.0328 189.979 73.927 191.094 70.5793C191.571 68.1181 192.25 63.149 192.439 60.3594C192.423 60.3705 192.407 60.3815 192.392 60.3924C192.392 59.701 192.001 58.1192 190.439 57.3238C190.296 57.2509 190.151 57.1941 190.007 57.1517C190.71 57.6866 191.333 58.4633 191.652 59.4205C192.21 61.0943 191.149 69.9051 189.7 70.3004C186.631 71.1373 186.042 69.4983 186.352 66.3948C186.57 64.2114 186.618 60.7749 186.628 58.2252C186.594 58.2569 186.563 58.2879 186.533 58.318C186.604 57.9219 186.338 57.1246 185.007 56.472Z" fill="#DF824C"/>
<path d="M46.9101 110.485C47.4813 113.25 50.8704 116.573 52.4935 117.889L41.7108 125.432C40.2437 123.273 36.8724 118.757 35.1234 117.965C33.3744 117.173 31.9624 116.036 31.4749 115.566C31.2127 116.041 30.3145 117.013 28.8203 117.106C26.9525 117.221 20.7079 109.233 20.9349 106.844C21.1166 104.933 22.7547 104.606 23.551 104.682C23.2042 104.084 22.7485 102.52 23.701 101.048C24.6534 99.576 26.6827 99.7018 27.5783 99.9487C27.2384 99.5477 27.0536 98.2652 29.0345 96.3426C31.0154 94.4199 33.233 95.4266 34.0943 96.1702C35.8196 93.8794 38.3016 91.9844 40.6469 94.1235C44.7538 97.8691 46.1961 107.03 46.9101 110.485Z" fill="#F9A370"/>
<path d="M52.5874 112.375L86.7488 159.361L71.8205 169.155L36.0262 123.239C40.469 125.129 48.9182 116.784 52.5874 112.375Z" fill="url(#paint5_linear_18_62)"/>
<path d="M35.6155 94.494C33.2087 97.1846 29.6597 101.437 31.2128 103.63C32.0949 104.876 35.997 102.859 38.6769 101.473C39.1317 101.238 39.5513 101.021 39.915 100.841C36.7148 103.664 31.8497 105.841 30.5902 103.669C29.7651 102.246 30.0587 99.3956 33.6725 95.8605C33.8355 95.9632 33.9774 96.0691 34.0944 96.1701C34.5535 95.5605 35.0661 94.979 35.6155 94.494Z" fill="#DF824C"/>
<path d="M39.218 102.617C41.36 105.861 45.0962 111.518 41.0902 115.113C37.1564 118.644 34.1422 115.997 32.3185 114.396C31.8953 114.025 31.5362 113.709 31.2446 113.541L33.1931 112.487L33.5469 110.949L33.6046 108.938L35.4292 109.077L37.3592 107.575L37.382 103.777V102.382L38.538 101.572C38.7317 101.881 38.9636 102.232 39.218 102.617Z" fill="url(#paint6_linear_18_62)"/>
<path d="M27.9724 97.5862C27.8997 98.7463 28.1476 100.286 29.2292 101.878C29.294 101.973 29.3595 102.07 29.4257 102.168C31.6106 105.389 34.5779 109.763 36.5453 106.845C38.2788 104.273 36.7776 102.661 36.7776 102.661L37.2602 102.381C37.322 102.544 37.3956 102.724 37.4746 102.917C37.9061 103.971 38.4956 105.411 38.1527 106.7C37.8486 107.844 36.0964 109.828 33.9487 109.461C34.1192 110.867 34.1627 113.722 31.4483 113.49C31.656 114.314 31.6661 115.048 31.3997 115.689C31.0649 116.191 30.1948 117.02 28.8203 117.105C26.9525 117.221 20.7079 109.233 20.935 106.844C21.0035 106.123 21.2792 105.628 21.6387 105.294C21.4863 105.982 21.4433 106.87 21.7237 107.843C22.3606 110.053 26.9016 114.744 28.4653 115.772C29.4542 116.423 32.4279 115.18 29.7833 112.844C28.1366 110.953 25.0559 106.996 23.4934 104.677C23.5131 104.679 23.5323 104.68 23.5511 104.682C23.2042 104.084 22.7486 102.519 23.701 101.048C23.7882 100.913 23.8845 100.791 23.9881 100.682C23.6483 101.498 23.4988 102.482 23.7029 103.47C24.0599 105.198 30.0718 112.531 31.5239 112.146C34.5983 111.33 33.6121 109.374 31.7868 106.845C30.5026 105.065 28.7377 102.116 27.4497 99.9159C27.4948 99.9264 27.5378 99.9374 27.5784 99.9486C27.3181 99.6416 27.1488 98.8181 27.9724 97.5862Z" fill="#DF824C"/>
<path d="M123.305 174.077C109.468 176.978 88.1546 153.805 77.8327 143.948C74.2619 148.635 67.2318 156.502 58.5837 157.339L97.44 198.658C97.9266 199.175 98.1975 199.859 98.1975 200.569V263.069C118.953 265.97 163.011 259.721 181.609 252.747L161.524 187.189C168.219 177.369 183.283 148.133 187.189 133.906H164.313C155.665 157.897 143.949 169.749 123.305 174.077Z" fill="url(#paint7_linear_18_62)"/>
<g style="mix-blend-mode:multiply" opacity="0.3">
<path d="M179.501 245.866C166.393 254.474 121.585 259.001 112.425 254.421C104.86 250.638 105.103 221.481 105.229 206.433C105.26 202.614 105.285 199.703 105.172 198.348C104.745 193.232 78.5016 169.051 63.668 156.032C62.0513 156.703 60.3513 157.168 58.5837 157.339L97.44 198.658C97.9266 199.176 98.1975 199.859 98.1975 200.569V263.068L157.305 258.986C166.964 257.17 175.611 254.996 181.609 252.747L179.501 245.866Z" fill="#2A87C6"/>
</g>
<circle cx="145.343" cy="-8.09007" r="61.6524" fill="#FFD5A8"/>
</g>
<defs>
<linearGradient id="paint0_linear_18_62" x1="132.79" y1="13.9485" x2="130" y2="260" gradientUnits="userSpaceOnUse">
<stop stop-color="#FDDFDF"/>
<stop offset="1" stop-color="#FFEDEC"/>
</linearGradient>
<linearGradient id="paint1_linear_18_62" x1="118.841" y1="10.6009" x2="78.6696" y2="207.833" gradientUnits="userSpaceOnUse">
<stop stop-color="#FFFCDF"/>
<stop offset="1" stop-color="#FFEBEA"/>
</linearGradient>
<linearGradient id="paint2_linear_18_62" x1="115.712" y1="87.9398" x2="124.142" y2="153.433" gradientUnits="userSpaceOnUse">
<stop offset="0.237228" stop-color="#DF824C"/>
<stop offset="1" stop-color="#FFAA79"/>
</linearGradient>
<linearGradient id="paint3_linear_18_62" x1="179.628" y1="82.0814" x2="176.431" y2="140.019" gradientUnits="userSpaceOnUse">
<stop stop-color="white"/>
<stop offset="1" stop-color="#BBCDE3"/>
</linearGradient>
<linearGradient id="paint4_linear_18_62" x1="183.841" y1="69.1845" x2="183.702" y2="76.2029" gradientUnits="userSpaceOnUse">
<stop stop-color="#DF824C"/>
<stop offset="1" stop-color="#F9A370"/>
</linearGradient>
<linearGradient id="paint5_linear_18_62" x1="45.4731" y1="117.042" x2="77.302" y2="165.559" gradientUnits="userSpaceOnUse">
<stop stop-color="white"/>
<stop offset="1" stop-color="#BBCDE3"/>
</linearGradient>
<linearGradient id="paint6_linear_18_62" x1="35.1715" y1="108.287" x2="39.0135" y2="114.162" gradientUnits="userSpaceOnUse">
<stop stop-color="#DF824C"/>
<stop offset="1" stop-color="#F9A370"/>
</linearGradient>
<linearGradient id="paint7_linear_18_62" x1="131.395" y1="157.339" x2="147.296" y2="254.142" gradientUnits="userSpaceOnUse">
<stop stop-color="#93C4E6"/>
<stop offset="1" stop-color="#2986C6"/>
</linearGradient>
</defs>
</svg>
