<svg width="311" height="261" viewBox="0 0 311 261" fill="none" xmlns="http://www.w3.org/2000/svg">
<circle cx="130.095" cy="130.095" r="130.095" fill="url(#paint0_linear_18_7)"/>
<mask id="mask0_18_7" style="mask-type:alpha" maskUnits="userSpaceOnUse" x="0" y="0" width="261" height="261">
<circle cx="130.095" cy="130.095" r="130.095" fill="#E7E7E7"/>
</mask>
<g mask="url(#mask0_18_7)">
<rect x="48.5763" y="58.0682" width="112.228" height="215.522" rx="13.9587" fill="#61185C"/>
<rect x="54.7181" y="77.6104" width="99.386" height="195.98" rx="8.37522" fill="#DD5EAA"/>
<path d="M54.7183 201.49V175.222L150.698 79.2429C152.764 80.7681 154.104 83.2204 154.104 85.9857V102.104L54.7183 201.49Z" fill="url(#paint1_linear_18_7)"/>
<path d="M54.7183 224.222L154.104 124.836V191.301L71.8144 273.591H63.0935C58.468 273.591 54.7183 269.841 54.7183 265.216V224.222Z" fill="url(#paint2_linear_18_7)"/>
<path d="M171.151 178.965C173.259 174.618 173.256 168.438 176.898 164.298C181.45 159.122 189.529 160.086 189.895 162.117C190.188 163.742 188.502 164.385 187.623 164.503C190.314 164.892 195.144 164.971 197.787 162.268C201.091 158.89 202.622 163.504 200.776 164.755C201.938 163.967 205.386 162.9 205.835 164.852C206.216 166.512 204.184 168.291 202.899 169.022C204.194 168.495 205.894 168.371 206.137 170.187C206.492 172.825 195.228 179.628 182.935 176.761L180.993 182.999L171.151 178.965Z" fill="#FFDDB5"/>
<path d="M204.307 168.684C203.84 168.707 203.345 168.841 202.899 169.022C204.062 168.36 205.838 166.839 205.881 165.325C204.262 167.437 200.125 170.748 193.487 170.717C195.38 170.912 199.897 170.716 204.307 168.684Z" fill="#FDB790"/>
<path d="M188.84 164.106C189.508 163.743 190.075 163.116 189.895 162.117C189.887 162.073 189.876 162.03 189.861 161.987C188.347 163.296 185.259 164.916 183.493 165.743C185.244 165.375 186.692 164.931 187.787 164.526C187.732 164.518 187.677 164.511 187.623 164.503C187.779 164.482 187.961 164.444 188.153 164.388C188.404 164.29 188.634 164.195 188.84 164.106Z" fill="#FDB790"/>
<path d="M201.289 161.906C200.596 163.643 198.061 166.49 191.9 167.358C193.796 167.315 198.109 166.607 201.816 164.231C201.396 164.396 201.031 164.582 200.776 164.755C201.655 164.159 201.768 162.801 201.289 161.906Z" fill="#FDB790"/>
<path d="M116.264 170.638C113.074 168.902 112.796 163.455 113.012 160.926C108.171 156.952 98.6646 151.699 100.872 160.926C102.973 169.707 99.5778 172.829 96.8011 174C91.1292 174.836 85.8396 177.139 81.0215 180.306C81.4247 185.827 82.3173 199.211 82.6621 208.576C82.6554 220.202 79.4942 226.994 81.0215 234.497L82.6621 257.26C82.7695 258.926 82.5585 255.901 82.6621 257.26C102.78 262.983 126.598 264.684 137.148 261.865L141.195 220.282C145.964 230.688 158.321 233.847 161.139 229.294C170.895 219.756 180.867 195.785 185.203 179.31L171.328 173.89L156.804 208.576C156.804 208.576 156.804 209.35 149.866 197.086C143.299 181.762 127.781 174.737 118.663 171.601C118.119 171.414 117.607 171.238 117.131 171.072L117.083 171.079C116.816 170.937 116.543 170.79 116.264 170.638Z" fill="url(#paint3_linear_18_7)"/>
<path d="M124.666 173.935C122.495 172.984 120.456 172.218 118.663 171.601C118.119 171.414 117.607 171.238 117.131 171.072L117.083 171.079C116.916 170.99 116.747 170.899 116.575 170.807L109.995 182.022L100.024 171.441C99.1087 172.759 97.9059 173.534 96.801 174C95.9248 174.129 95.0576 174.293 94.2 174.49L111.805 216.937L124.666 173.935Z" fill="#D03A94"/>
<path d="M113.012 160.926C112.796 163.455 113.074 168.902 116.264 170.638C116.543 170.79 116.817 170.937 117.083 171.079L117.131 171.072C117.607 171.238 118.119 171.414 118.663 171.601C119.176 171.778 119.711 171.967 120.262 172.169L110.071 182.034L98.2214 173.229C100.562 171.622 102.621 168.234 100.872 160.926C100.481 159.29 100.458 158.109 100.711 157.296L109.096 158.151C110.516 159.014 111.89 160.005 113.012 160.926Z" fill="#FFDDB5"/>
<path d="M101.014 161.549C101.153 162.189 101.261 162.797 101.341 163.376C104.246 165.294 108.894 167.49 113.754 167.409C113.011 165.387 112.895 162.991 112.98 161.393C111.679 160.747 110.329 160.157 109.157 159.688L101.014 161.549Z" fill="#FDB790"/>
<path d="M121.568 172.66C120.546 172.266 119.573 171.914 118.663 171.601C118.442 171.525 118.225 171.451 118.015 171.378L110.071 182.034L114.462 179.788L123.674 182.58L121.568 172.66Z" fill="#B8217B"/>
<path d="M96.1332 174.105L97.4319 183.976L104.97 180.626L110.071 182.034C107.313 179.331 101.286 174.943 98.5118 173.019C97.95 173.446 97.3629 173.763 96.801 174C96.5778 174.033 96.3552 174.068 96.1332 174.105Z" fill="#B8217B"/>
<path d="M93.0328 174.78C92.17 175.01 91.3171 175.273 90.4745 175.566C88.7648 179.414 87.8168 183.925 87.3278 188.188C86.7052 193.616 86.814 198.757 87.109 201.855L89.0544 201.67C88.7714 198.697 88.6634 193.693 89.2693 188.411C89.8223 183.59 90.96 178.632 93.0328 174.78Z" fill="#A24A9C"/>
<path d="M132.059 177.73C130.987 177.087 129.917 176.492 128.858 175.94C130.631 178.678 131.759 182 132.466 185.524C133.316 189.765 133.541 194.219 133.587 198.144C132.666 198.178 131.657 198.303 130.728 198.741C129.371 199.381 128.325 200.611 127.75 202.712C127.075 205.178 126.45 210.489 126.427 215.188C126.415 217.54 126.553 219.811 126.936 221.533C127.127 222.387 127.393 223.18 127.781 223.789C128.174 224.404 128.782 224.958 129.652 225.005L129.758 223.054C129.749 223.054 129.63 223.053 129.428 222.737C129.218 222.407 129.013 221.869 128.844 221.108C128.508 219.599 128.37 217.499 128.381 215.198C128.404 210.591 129.022 205.468 129.635 203.228C130.091 201.563 130.819 200.859 131.562 200.508C132.368 200.128 133.341 200.084 134.499 200.087C135.498 200.236 136.255 200.484 136.847 200.846C137.438 201.207 137.912 201.71 138.296 202.442C139.098 203.972 139.492 206.455 139.6 210.547C139.733 215.61 139.239 218.676 138.504 220.477C137.794 222.22 136.915 222.673 136.194 222.771L136.456 224.707C138.023 224.495 139.403 223.449 140.314 221.215C141.201 219.039 141.689 215.651 141.554 210.496C141.446 206.412 141.062 203.508 140.027 201.535C139.492 200.516 138.783 199.739 137.865 199.178C137.177 198.757 136.4 198.476 135.543 198.291C135.501 194.279 135.28 189.617 134.382 185.139C133.869 182.58 133.129 180.054 132.059 177.73Z" fill="#A24A9C"/>
<circle r="4.98612" transform="matrix(-1 0 0 1 88.7321 205.448)" fill="url(#paint4_linear_18_7)"/>
<path d="M80.7632 232.899C80.8273 233.429 80.9124 233.961 81.0215 234.497L81.7979 245.27C89.9679 241.78 103.599 234.972 108.554 230.161L80.7632 232.899Z" fill="#F1DBF0"/>
<path d="M112.467 260.016C113.028 259.988 113.586 259.957 114.14 259.922L113.293 233.82L111.619 233.874L112.467 260.016Z" fill="#E1C8E0"/>
<path fill-rule="evenodd" clip-rule="evenodd" d="M119.61 192.223C119.682 190.561 120.954 187.324 125.463 187.671C125.463 186.804 126.027 184.983 128.281 184.636C131.1 184.202 131.967 187.021 131.75 187.888C133.629 187.671 137.343 188.148 137.17 191.79C136.996 195.432 125.391 193.596 119.61 192.223ZM128.932 189.622C130.009 189.622 130.883 188.748 130.883 187.671C130.883 186.593 130.009 185.72 128.932 185.72C127.854 185.72 126.981 186.593 126.981 187.671C126.981 188.748 127.854 189.622 128.932 189.622Z" fill="#C4C4C4"/>
<rect x="111.805" y="190.923" width="29.4832" height="48.9941" rx="2.79174" fill="#4D2525"/>
<rect x="113.54" y="190.923" width="29.4832" height="48.9941" rx="2.79174" fill="#9D5555"/>
<path d="M112.187 209.1C108.334 211.222 105.086 216.305 103.944 218.582L103.86 228.252C105.363 228.588 109.128 228.82 112.16 227.062C115.951 224.865 114.501 222.02 117.436 222.035C120.37 222.05 123.083 223.488 123.724 221.324C124.237 219.593 121.032 218.083 119.544 217.818C120.928 217.956 123.826 217.598 123.996 215.944C124.165 214.29 120.312 213.486 118.227 212.907C119.659 213.259 122.951 213.419 123.293 211.727C123.72 209.611 117.003 206.448 112.187 209.1Z" fill="#FFDDB5"/>
<path d="M120.081 217.946C119.886 217.89 119.705 217.847 119.544 217.818C120.928 217.956 123.826 217.598 123.996 215.944C124.03 215.607 123.898 215.305 123.648 215.034C123.443 215.831 122.22 217.005 118.37 217.198C113.903 217.421 112.414 218.035 112.228 218.314C114.148 218.14 117.444 217.922 120.081 217.946Z" fill="#FDB790"/>
<path d="M106.965 228.472C108.583 228.398 110.484 228.034 112.161 227.062C114.019 225.985 114.618 224.751 115.092 223.776C115.584 222.762 115.94 222.027 117.436 222.035C118.34 222.039 119.224 222.179 120.032 222.307C121.502 222.54 122.723 222.733 123.369 222.001C122.637 222.15 121.725 222.085 120.603 221.664C116.137 219.989 113.624 222.502 112.787 225.015C112.117 227.025 108.227 227.713 106.366 227.806L106.965 228.472Z" fill="#FDB790"/>
<path d="M118.947 213.1C116.818 212.945 114.822 213.117 113.903 213.289C115.895 212.022 117.653 212.046 119.175 212.067C119.999 212.079 120.754 212.089 121.441 211.893C122.62 211.557 122.603 210.67 122.324 209.975C123.028 210.548 123.404 211.173 123.293 211.727C122.951 213.419 119.659 213.259 118.227 212.907C118.45 212.968 118.692 213.033 118.947 213.1Z" fill="#FDB790"/>
<path d="M61.2937 216.937C63.7217 196.993 75.4572 184.202 81.0214 180.3C89.346 181.514 82.3221 198.944 82.9725 218.888L106.169 213.902C102.7 219.972 106.458 227.271 108.77 230.161C105.085 231.896 95.1126 236.318 84.7068 240.134C71.6995 244.903 58.2586 241.868 61.2937 216.937Z" fill="url(#paint5_linear_18_7)"/>
<path d="M82.7558 218.672C80.6718 218.343 82.6113 207.471 82.7558 202.846C81.961 207.037 79.504 218.628 79.504 221.056C79.504 223.484 96.4135 218.672 103.567 216.07C99.2317 216.793 86.8748 219.322 82.7558 218.672Z" fill="#F1DBF0"/>
<ellipse cx="105.519" cy="98.3543" rx="13.2241" ry="12.3569" fill="#31062E"/>
<path d="M85.574 111.362C80.3711 120.9 81.8164 133.835 83.1894 139.11C99.3762 142.218 131.793 146.351 131.967 138.027C132.183 127.621 129.799 108.543 121.127 103.774C112.456 99.0047 92.0777 99.4383 85.574 111.362Z" fill="#42083E"/>
<path d="M80.9278 138.552C83.7027 135.777 86.7088 138.986 87.865 140.937L92.2008 150.692C90.7556 150.837 87.2147 150.822 84.6132 149.608C81.3614 148.091 77.4592 142.021 80.9278 138.552Z" fill="#FDB790"/>
<path d="M132.901 137.685C130.127 134.91 127.12 138.118 125.964 140.07L121.628 149.825C123.074 149.97 126.615 149.955 129.216 148.741C132.468 147.224 136.37 141.153 132.901 137.685Z" fill="#FDB790"/>
<path d="M116.859 161.37C128.404 155.727 128.188 140.505 129.91 129.274C126.33 85.5638 86.2244 106.592 85.6603 117.642C85.3267 124.176 83.746 130.749 86.7811 145.924C89.8126 161.082 103.907 167.701 116.859 161.37Z" fill="#FFDDB5"/>
<mask id="mask1_18_7" style="mask-type:alpha" maskUnits="userSpaceOnUse" x="84" y="102" width="46" height="62">
<path d="M116.859 161.37C128.404 155.727 128.188 140.505 129.91 129.274C126.33 85.5638 86.7811 105.508 85.1405 117.865C84.2795 124.351 83.746 130.749 86.7811 145.924C89.8126 161.082 103.907 167.701 116.859 161.37Z" fill="#EEEEEE"/>
</mask>
<g mask="url(#mask1_18_7)">
<g filter="url(#filter0_f_18_7)">
<circle cx="128.141" cy="149.917" r="8.6544" fill="#F86060"/>
</g>
<g filter="url(#filter1_f_18_7)">
<circle cx="86.8233" cy="150.475" r="8.6544" fill="#F86060"/>
</g>
</g>
<path d="M85.1209 136.032C85.3459 129.35 87.0969 120.974 94.0288 122.418C96.7404 122.983 98.8865 123.722 100.786 124.376C106.178 126.232 109.587 127.406 118.309 121.984C125.837 117.304 128.782 129.429 129.116 135.418C129.139 135.222 129.163 135.026 129.186 134.831C129.415 132.915 129.638 131.045 129.91 129.274C126.33 85.5637 86.7811 105.508 85.1405 117.865C84.4952 122.726 84.0339 127.538 85.1209 136.032Z" fill="#42083E"/>
<ellipse rx="2.60146" ry="3.6854" transform="matrix(-1 0 0 1 115.831 137.81)" fill="black"/>
<ellipse rx="2.60146" ry="3.6854" transform="matrix(-0.997682 0.068052 0.068052 0.997682 99.2317 138.243)" fill="black"/>
<path d="M106.942 137.253C107.164 139.066 108.92 140.505 109.861 142.041C111.443 144.623 108.677 145.924 106.075 145.924" stroke="#FDB790" stroke-width="1.1167" stroke-linecap="round" stroke-linejoin="bevel"/>
<path d="M100.978 148.651C107.435 152.313 113.217 149.591 115.3 147.772C114.915 151.326 113.316 156.212 109.204 156.453C101.833 156.887 101.099 151.115 100.978 148.651Z" fill="white"/>
<path d="M101.285 151.003C104.471 151.95 110.112 152.688 114.831 150.344C114.053 153.315 112.377 156.267 109.204 156.454C103.698 156.777 101.895 153.639 101.285 151.003Z" fill="#D25959"/>
<path d="M93.5953 135.425C93.8844 133.618 95.6765 130.179 100.533 130.873M113.973 130.873C115.78 130.222 119.653 129.789 120.694 133.257" stroke="black" stroke-width="1.67504" stroke-linecap="round"/>
<circle cx="104.69" cy="67.281" r="4.74596" fill="#982E91"/>
</g>
<path d="M209.939 55.8348C194.521 55.8348 182.021 68.3339 182.021 83.7523V110.553C182.021 125.971 194.521 138.47 209.939 138.47H213.379C213.577 142.864 212.247 148.864 206.31 152.987C212.418 152.194 224.06 148.208 228.467 138.47H283.083C298.501 138.47 311 125.971 311 110.553V83.7523C311 68.3339 298.501 55.8348 283.083 55.8348H209.939Z" fill="#FB644B"/>
<rect x="201.564" y="81.5188" width="46.3429" height="5.58348" rx="2.79174" fill="#FAD6D6"/>
<rect x="201.564" y="97.1526" width="93.8025" height="5.58348" rx="2.79174" fill="#FAD6D6"/>
<defs>
<filter id="filter0_f_18_7" x="105.528" y="127.304" width="45.2263" height="45.2262" filterUnits="userSpaceOnUse" color-interpolation-filters="sRGB">
<feFlood flood-opacity="0" result="BackgroundImageFix"/>
<feBlend mode="normal" in="SourceGraphic" in2="BackgroundImageFix" result="shape"/>
<feGaussianBlur stdDeviation="6.97935" result="effect1_foregroundBlur_18_7"/>
</filter>
<filter id="filter1_f_18_7" x="64.2102" y="127.862" width="45.2263" height="45.2262" filterUnits="userSpaceOnUse" color-interpolation-filters="sRGB">
<feFlood flood-opacity="0" result="BackgroundImageFix"/>
<feBlend mode="normal" in="SourceGraphic" in2="BackgroundImageFix" result="shape"/>
<feGaussianBlur stdDeviation="6.97935" result="effect1_foregroundBlur_18_7"/>
</filter>
<linearGradient id="paint0_linear_18_7" x1="130.095" y1="14.7962" x2="130.095" y2="260.19" gradientUnits="userSpaceOnUse">
<stop stop-color="#FDDFDF"/>
<stop offset="1" stop-color="#FFEEED"/>
</linearGradient>
<linearGradient id="paint1_linear_18_7" x1="152.429" y1="91.29" x2="-28.984" y2="278.865" gradientUnits="userSpaceOnUse">
<stop stop-color="#DD5EAA"/>
<stop offset="1" stop-color="#FFA8DC"/>
</linearGradient>
<linearGradient id="paint2_linear_18_7" x1="56.3933" y1="275.545" x2="273.377" y2="-50.7946" gradientUnits="userSpaceOnUse">
<stop stop-color="#DD5EAA"/>
<stop offset="1" stop-color="#FFA8DC"/>
</linearGradient>
<linearGradient id="paint3_linear_18_7" x1="130.933" y1="185.372" x2="129.258" y2="271.357" gradientUnits="userSpaceOnUse">
<stop stop-color="#FEF9FD"/>
<stop offset="1" stop-color="#F8E6F7"/>
</linearGradient>
<linearGradient id="paint4_linear_18_7" x1="4.94062" y1="1.10238" x2="4.98612" y2="9.97225" gradientUnits="userSpaceOnUse">
<stop stop-color="#490E45"/>
<stop offset="1" stop-color="#81247A"/>
</linearGradient>
<linearGradient id="paint5_linear_18_7" x1="83.4732" y1="187.326" x2="84.8691" y2="246.79" gradientUnits="userSpaceOnUse">
<stop stop-color="#FFFAFE"/>
<stop offset="1" stop-color="#F9E9F8"/>
</linearGradient>
</defs>
</svg>
