<svg width="260" height="260" viewBox="0 0 260 260" fill="none" xmlns="http://www.w3.org/2000/svg">
<circle cx="130" cy="130" r="130" fill="url(#paint0_linear_17_12)"/>
<mask id="mask0_17_12" style="mask-type:alpha" maskUnits="userSpaceOnUse" x="0" y="0" width="260" height="260">
<circle cx="130" cy="130" r="130" fill="#E7E7E7"/>
</mask>
<g mask="url(#mask0_17_12)">
<ellipse cx="53.2811" cy="96.1494" rx="28.0383" ry="33.646" fill="#E6B193"/>
<path d="M37.2993 76.8031C30.3458 82.8593 25.8036 95.8691 26.3643 106.524C25.6166 104.935 23.4483 98.8411 25.2428 87.1772C29.0388 62.5035 49.0754 52.6901 67.3002 65.027C83.8428 76.225 82.0671 95.9625 80.4782 104.561C78.7959 93.626 75.2631 88.2987 71.2256 80.448C66.1787 70.6346 45.9911 69.2327 37.2993 76.8031Z" fill="#31062E"/>
<ellipse cx="43.1687" cy="100.23" rx="3.48121" ry="4.64161" fill="black"/>
<path d="M47.8103 110.674C48.9707 115.315 55.9331 117.636 58.2539 110.674" stroke="black" stroke-width="2.23176" stroke-linecap="round"/>
<ellipse cx="61.7351" cy="100.23" rx="3.48121" ry="4.64161" fill="black"/>
<circle cx="42.3462" cy="100.355" r="7.29419" stroke="black" stroke-width="1.67382"/>
<circle cx="62.5338" cy="100.355" r="7.29419" stroke="black" stroke-width="1.67382"/>
<path d="M49.3557 101.196C50.4379 99.9268 53.1866 98.1495 55.5241 101.196" stroke="black" stroke-width="1.67382"/>
<path d="M29.4487 75.0084C31.4584 67.1132 36.5305 63.8742 38.6359 62.5584C71.2502 50.8978 77.3941 78.045 77.3941 87.7622C60.3979 91.4061 45.1434 85.3329 41.5068 81.9926C41.7365 86.8512 43.7079 90.0903 44.665 91.1025C34.0423 89.5842 27.7304 81.7588 29.4487 75.0084Z" fill="#42083E"/>
<path d="M104.893 196.207C104.893 271.274 82.286 261.856 54.3992 261.856C26.5124 261.856 3.90564 281.964 3.90564 196.207C3.90564 159.95 26.5124 130.558 54.3992 130.558C82.286 130.558 104.893 159.95 104.893 196.207Z" fill="white"/>
<path d="M84.1375 260.649C102.448 251.043 104.893 222.111 104.893 196.116C104.893 188.021 103.763 180.269 101.696 173.111C91.3951 180.851 81.7382 195.126 81.7382 229.034C81.7382 243.971 82.5701 254.025 84.1375 260.649Z" fill="#EBD5E8"/>
<path d="M70.8583 226.803V248.562L36.545 234.335L53.8412 222.339L70.8583 226.803Z" fill="#0E3147"/>
<path d="M36.6072 134.744C34.8088 149.388 32.9277 174.099 33.6254 204.745C34.5535 245.51 70.7489 228.595 70.7489 228.595C72.1579 205.247 72.9919 161.008 72.2633 134.779C66.7097 132.051 60.6887 130.558 54.3992 130.558C48.1369 130.558 42.1408 132.038 36.6072 134.744Z" fill="#6DA8CD"/>
<path d="M49.0987 149.249L42.6824 229.871H65L57.1888 148.412L49.0987 149.249Z" fill="#CE4933"/>
<path d="M47.5103 144.488C47.071 146.695 48.3668 152.037 50.4752 153.096C53.1108 154.42 59.1417 154.549 59.1417 142.554L48.2618 141.996L47.5103 144.488Z" fill="#FB644B"/>
<path d="M72.2806 134.787L61.0945 148.133L53.5623 141.996L45.4721 148.133L36.9517 134.577C42.3893 131.977 48.2666 130.558 54.3992 130.558C60.6952 130.558 66.7222 132.054 72.2806 134.787Z" fill="#3581B1"/>
<path d="M45.048 131.68L53.2434 142.275L63.0368 131.513C60.2301 130.885 57.3441 130.558 54.3992 130.558C51.2041 130.558 48.0784 130.943 45.048 131.68Z" fill="#E5B193"/>
<path d="M78.5759 138.547C79.7762 139.399 80.947 140.312 82.0857 141.283C83.298 143.892 84.2832 146.645 85.0756 149.343C86.8433 155.362 87.6795 161.203 87.9079 164.762L86.0628 164.901C85.8417 161.454 85.0248 155.734 83.2939 149.841C82.1406 145.914 80.5938 141.954 78.5759 138.547Z" fill="#A24A9C"/>
<path d="M88.109 172.421C91.0364 172.421 93.4095 170.048 93.4095 167.121C93.4095 164.194 91.0364 161.821 88.109 161.821C85.1817 161.821 82.8086 164.194 82.8086 167.121C82.8086 170.048 85.1817 172.421 88.109 172.421Z" fill="#52124E"/>
<path d="M24.5403 143.243C25.9184 141.929 27.3498 140.703 28.8294 139.573C26.3336 144.148 23.5684 150.679 22.6712 157.573C24.2002 158.047 25.7972 159.363 26.9108 161.763C28.3136 164.785 28.992 169.572 27.9754 176.891L25.7648 176.584C26.7511 169.483 26.0374 165.182 24.8864 162.702C23.8028 160.367 22.3719 159.693 21.5418 159.609C19.1021 160.256 13.4608 164.274 13.1133 176.341L10.8824 176.277C11.2313 164.165 16.7239 158.939 20.4155 157.624C21.0473 152.425 22.694 147.434 24.5403 143.243Z" fill="#A24A9C"/>
<path d="M26.7289 178.408C28.423 178.457 29.8322 177.248 29.8766 175.708C29.9209 174.168 28.5836 172.88 26.8895 172.831C25.1954 172.782 23.7861 173.991 23.7418 175.531C23.6974 177.071 25.0348 178.359 26.7289 178.408Z" fill="#52124E"/>
<path d="M13.065 178.014C14.6051 178.059 15.8895 176.846 15.9339 175.306C15.9782 173.766 14.7657 172.482 13.2256 172.437C11.6855 172.393 10.4011 173.606 10.3568 175.146C10.3124 176.686 11.5249 177.97 13.065 178.014Z" fill="#52124E"/>
<circle cx="213.714" cy="69.6071" r="13.2552" fill="#31062E"/>
<circle cx="213.761" cy="96.8415" r="27.967" fill="#FFD7A9"/>
<mask id="mask1_17_12" style="mask-type:alpha" maskUnits="userSpaceOnUse" x="185" y="68" width="57" height="57">
<circle cx="213.761" cy="96.8415" r="27.967" fill="#C4C4C4"/>
</mask>
<g mask="url(#mask1_17_12)">
<g opacity="0.5" filter="url(#filter0_f_17_12)">
<circle cx="233.219" cy="110.472" r="8.3691" fill="#F28585"/>
</g>
<g opacity="0.5" filter="url(#filter1_f_17_12)">
<circle cx="193.605" cy="111.588" r="8.92704" fill="#F28585"/>
</g>
<path d="M198.639 85.2014C192.818 89.152 187.55 98.8031 185.644 103.135L179.926 90.9193L190.582 64.6689L233.467 59.9906C240.917 74.372 253.427 102.719 243.863 101.056C231.907 98.9764 232.947 79.2236 220.991 85.2014C209.036 91.1792 205.917 80.2632 198.639 85.2014Z" fill="#42083E"/>
</g>
<ellipse cx="204.08" cy="98.9928" rx="3.22696" ry="4.30261" fill="black"/>
<path d="M208.383 108.674C209.458 112.976 215.912 115.128 218.064 108.674" stroke="black" stroke-width="2.23176" stroke-linecap="round"/>
<ellipse cx="221.29" cy="98.9928" rx="3.22696" ry="4.30261" fill="black"/>
<path d="M264.464 191.373C264.464 225.577 225.398 261.953 197.511 261.953C169.624 261.953 163.476 225.577 163.476 191.373C163.476 157.17 186.083 129.442 213.97 129.442C241.857 129.442 264.464 157.17 264.464 191.373Z" fill="white"/>
<path d="M184.368 258.58C167.593 248.804 163.476 219.362 163.476 191.373C163.476 185.486 164.146 179.791 165.397 174.396C165.865 174.797 166.344 175.202 166.832 175.615C177.849 184.939 193.239 197.965 186.631 245.494C185.947 250.414 185.19 254.757 184.368 258.58Z" fill="#EBD5E8"/>
<path d="M195.728 133.607C196.577 140.223 200.832 154.521 213.691 191.652C226.761 163.308 231.188 145.55 232.071 133.54C226.452 130.893 220.349 129.442 213.97 129.442C207.537 129.442 201.386 130.917 195.728 133.607Z" fill="#D03A94"/>
<path d="M193.047 139.764L212.778 146.502L234.056 138.09L230.386 132.789C225.239 130.62 219.717 129.442 213.97 129.442C208.785 129.442 203.783 130.4 199.075 132.181L193.047 139.764Z" fill="#B8217B"/>
<path d="M203.805 130.697L212.778 146.502L223.445 130.531C220.376 129.816 217.209 129.442 213.97 129.442C210.488 129.442 207.089 129.874 203.805 130.697Z" fill="#FFD7A9"/>
<path d="M235.696 135.452C236.503 135.925 237.298 136.423 238.081 136.945C239.094 140.59 239.611 144.502 239.818 148.24C240.164 154.504 239.644 160.381 239.053 163.899L237.225 163.612C237.797 160.206 238.309 154.451 237.97 148.318C237.728 143.943 237.056 139.429 235.696 135.452Z" fill="#A24A9C"/>
<path d="M237.5 171.401C240.35 172.07 243.202 170.302 243.871 167.452C244.539 164.602 242.771 161.749 239.921 161.081C237.071 160.412 234.219 162.18 233.55 165.03C232.881 167.88 234.65 170.732 237.5 171.401Z" fill="#52124E"/>
<path d="M186.54 139.368C187.449 138.645 188.378 137.958 189.326 137.306C187.983 142.42 186.79 149.931 187.762 157.292C189.362 157.356 191.244 158.216 192.939 160.247C195.073 162.806 196.963 167.256 197.868 174.59L195.653 174.863C194.775 167.748 192.976 163.776 191.225 161.677C189.576 159.7 188.02 159.418 187.196 159.551C185.006 160.805 180.591 166.141 183.366 177.89L181.194 178.404C178.409 166.611 182.368 160.146 185.596 157.923C184.663 151.292 185.42 144.564 186.54 139.368Z" fill="#A24A9C"/>
<path d="M197.054 176.377C198.704 175.987 199.754 174.456 199.399 172.956C199.045 171.457 197.421 170.557 195.772 170.947C194.122 171.336 193.072 172.868 193.427 174.367C193.781 175.867 195.405 176.766 197.054 176.377Z" fill="#52124E"/>
<path d="M183.751 179.519C185.25 179.165 186.179 177.662 185.825 176.163C185.47 174.664 183.968 173.735 182.468 174.089C180.969 174.444 180.04 175.946 180.395 177.446C180.749 178.945 182.252 179.874 183.751 179.519Z" fill="#52124E"/>
<path d="M185.47 216.601C185.47 273.408 162.883 266.282 135.022 266.282C107.16 266.282 84.5734 281.499 84.5734 216.601C84.5734 189.163 107.16 166.92 135.022 166.92C162.883 166.92 185.47 189.163 185.47 216.601Z" fill="white"/>
<path d="M117.707 169.923C115.865 184.951 113.812 211.642 114.531 245.089C114.694 252.659 115.581 258.534 116.997 263.017C122.595 265.126 128.671 266.282 135.021 266.282C140.73 266.282 146.217 265.348 151.334 263.627C152.675 238.509 153.438 195.393 152.687 170.051C147.189 168.027 141.237 166.92 135.021 166.92C128.938 166.92 123.107 167.98 117.707 169.923Z" fill="#2BBFA5"/>
<path d="M117.466 170.011L133.875 183.884L153.366 170.555L153.256 170.264C147.601 168.105 141.452 166.92 135.021 166.92C128.848 166.92 122.933 168.012 117.466 170.011Z" fill="#47F1D3"/>
<path d="M124.821 167.936L133.875 183.884L144.607 167.816C141.504 167.228 138.299 166.92 135.021 166.92C131.527 166.92 128.115 167.27 124.821 167.936Z" fill="#FFC6B5"/>
<path d="M157.42 172.073C158.589 172.644 159.732 173.259 160.847 173.915C162.976 177.502 164.571 181.617 165.743 185.609C167.511 191.628 168.347 197.469 168.576 201.028L166.731 201.167C166.509 197.72 165.693 192 163.962 186.107C162.483 181.071 160.357 175.981 157.42 172.073Z" fill="#A24A9C"/>
<path d="M168.777 208.688C171.704 208.688 174.077 206.314 174.077 203.387C174.077 200.46 171.704 198.087 168.777 198.087C165.85 198.087 163.476 200.46 163.476 203.387C163.476 206.314 165.85 208.688 168.777 208.688Z" fill="#52124E"/>
<path d="M107.403 175.019C108.674 174.199 109.984 173.434 111.331 172.727C108.545 177.082 104.467 185.174 103.339 193.839C104.868 194.313 106.465 195.629 107.578 198.029C108.981 201.051 109.66 205.838 108.643 213.157L106.432 212.85C107.419 205.749 106.705 201.448 105.554 198.968C104.47 196.633 103.039 195.959 102.209 195.875C99.7697 196.523 94.1284 200.54 93.7809 212.607L91.55 212.543C91.8989 200.431 97.3915 195.205 101.083 193.89C101.96 186.67 104.795 179.853 107.403 175.019Z" fill="#A24A9C"/>
<path d="M107.397 214.674C109.091 214.723 110.5 213.514 110.544 211.974C110.589 210.434 109.251 209.146 107.557 209.097C105.863 209.048 104.454 210.257 104.41 211.797C104.365 213.337 105.703 214.625 107.397 214.674Z" fill="#52124E"/>
<path d="M93.7327 214.281C95.2728 214.325 96.5572 213.112 96.6016 211.572C96.6459 210.032 95.4334 208.748 93.8933 208.703C92.3533 208.659 91.0688 209.872 91.0245 211.412C90.9801 212.952 92.1927 214.236 93.7327 214.281Z" fill="#52124E"/>
<path d="M103.043 144.864C101.04 125.054 107.402 114.351 110.833 111.476C122.704 106.19 149.117 99.457 159.801 114.815C170.485 130.173 164.253 156.271 159.801 167.4C156.648 165.452 147.003 161.446 133.648 161.001C120.293 160.555 110.833 165.081 107.773 167.4C105.324 159.61 103.599 149.13 103.043 144.864Z" fill="#42083E"/>
<circle cx="134.3" cy="132.822" r="29.9384" fill="#FFC6B5"/>
<mask id="mask2_17_12" style="mask-type:alpha" maskUnits="userSpaceOnUse" x="104" y="102" width="61" height="61">
<circle cx="134.3" cy="132.822" r="29.9384" fill="#FFC6B5"/>
</mask>
<g mask="url(#mask2_17_12)">
<g filter="url(#filter2_f_17_12)">
<circle cx="111.946" cy="147.906" r="9.45969" fill="#F28585"/>
</g>
<g filter="url(#filter3_f_17_12)">
<circle cx="154.793" cy="147.906" r="9.45969" fill="#F28585"/>
</g>
</g>
<ellipse cx="123.937" cy="135.125" rx="3.45443" ry="4.6059" fill="black"/>
<path d="M128.543 145.489C129.694 150.094 136.603 152.397 138.906 145.489" stroke="black" stroke-width="2.23176" stroke-linecap="round"/>
<ellipse cx="142.36" cy="135.125" rx="3.45443" ry="4.6059" fill="black"/>
<path d="M139.024 112.159C130.697 128.891 116.264 130.564 111.268 131.958L103.219 133.073C103.219 119.131 109.955 108.619 121.538 103.794C132.917 99.0532 153.595 101.005 161.783 117.458C167.782 129.511 164.466 141.16 161.783 144.506C149.127 135.36 145.408 127.218 144.297 115.227C144.297 115.227 141.244 114.948 139.024 112.159Z" fill="#42083E"/>
</g>
<rect x="116.052" y="56.3519" width="35.1502" height="35.1502" rx="8.3691" fill="white"/>
<rect x="123.026" y="62.7683" width="21.2017" height="21.2017" rx="4.18455" stroke="#52124E" stroke-width="2.7897"/>
<rect x="35.1503" y="18.97" width="35.1502" height="35.1502" rx="8.3691" fill="white"/>
<rect x="42.1245" y="25.3863" width="21.2017" height="21.2017" rx="4.18455" stroke="#52124E" stroke-width="2.7897"/>
<rect x="194.721" y="13.9485" width="35.1502" height="35.1502" rx="8.3691" fill="white"/>
<rect x="201.695" y="20.3648" width="21.2017" height="21.2017" rx="4.18455" stroke="#52124E" stroke-width="2.7897"/>
<path d="M206.996 28.7339L211.738 34.3133L223.734 18.97" stroke="#34DD77" stroke-width="3.34764" stroke-linecap="round" stroke-linejoin="round"/>
<defs>
<filter id="filter0_f_17_12" x="222.06" y="99.3133" width="22.3176" height="22.3176" filterUnits="userSpaceOnUse" color-interpolation-filters="sRGB">
<feFlood flood-opacity="0" result="BackgroundImageFix"/>
<feBlend mode="normal" in="SourceGraphic" in2="BackgroundImageFix" result="shape"/>
<feGaussianBlur stdDeviation="1.39485" result="effect1_foregroundBlur_17_12"/>
</filter>
<filter id="filter1_f_17_12" x="181.888" y="99.8713" width="23.4335" height="23.4335" filterUnits="userSpaceOnUse" color-interpolation-filters="sRGB">
<feFlood flood-opacity="0" result="BackgroundImageFix"/>
<feBlend mode="normal" in="SourceGraphic" in2="BackgroundImageFix" result="shape"/>
<feGaussianBlur stdDeviation="1.39485" result="effect1_foregroundBlur_17_12"/>
</filter>
<filter id="filter2_f_17_12" x="99.6968" y="135.657" width="24.4987" height="24.4988" filterUnits="userSpaceOnUse" color-interpolation-filters="sRGB">
<feFlood flood-opacity="0" result="BackgroundImageFix"/>
<feBlend mode="normal" in="SourceGraphic" in2="BackgroundImageFix" result="shape"/>
<feGaussianBlur stdDeviation="1.39485" result="effect1_foregroundBlur_17_12"/>
</filter>
<filter id="filter3_f_17_12" x="142.544" y="135.657" width="24.4987" height="24.4988" filterUnits="userSpaceOnUse" color-interpolation-filters="sRGB">
<feFlood flood-opacity="0" result="BackgroundImageFix"/>
<feBlend mode="normal" in="SourceGraphic" in2="BackgroundImageFix" result="shape"/>
<feGaussianBlur stdDeviation="1.39485" result="effect1_foregroundBlur_17_12"/>
</filter>
<linearGradient id="paint0_linear_17_12" x1="130" y1="21.4807" x2="130" y2="182.725" gradientUnits="userSpaceOnUse">
<stop stop-color="#FDDFDF"/>
<stop offset="1" stop-color="#FFEDEC"/>
</linearGradient>
</defs>
</svg>
